<svg xmlns="http://www.w3.org/2000/svg" viewBox="0 0 358.1 428.31"><defs><style>.a{fill:#2f3152;}</style></defs><title>Icono3AplicacionesWeb</title><path class="a" d="M1231,216H949a12,12,0,0,0-12,12V490a12,12,0,0,0,12,12h282a12,12,0,0,0,12-12V228A12,12,0,0,0,1231,216ZM980.61,466.32,966.5,482.46a1.79,1.79,0,0,1-2.41.14l-7.57-6.86a1.57,1.57,0,0,1-.11-2.22l.7-.79a1.58,1.58,0,0,1,2.22-.11l5.69,5.14,12.43-14.21a1.58,1.58,0,0,1,2.22-.15l.79.7A1.57,1.57,0,0,1,980.61,466.32Zm0-39L966.5,443.46a1.79,1.79,0,0,1-2.41.14l-7.57-6.86a1.57,1.57,0,0,1-.11-2.22l.7-.79a1.58,1.58,0,0,1,2.22-.11l5.69,5.14,12.43-14.21a1.58,1.58,0,0,1,2.22-.15l.79.7A1.57,1.57,0,0,1,980.61,427.32Zm0-38L966.5,405.46a1.79,1.79,0,0,1-2.41.14l-7.57-6.86a1.57,1.57,0,0,1-.11-2.22l.7-.79a1.58,1.58,0,0,1,2.22-.11l5.69,5.14,12.43-14.21a1.58,1.58,0,0,1,2.22-.15l.79.7A1.57,1.57,0,0,1,980.61,389.32Zm0-41L966.5,364.46a1.79,1.79,0,0,1-2.41.14l-7.57-6.86a1.57,1.57,0,0,1-.11-2.22l.7-.79a1.58,1.58,0,0,1,2.22-.11l5.69,5.14,12.43-14.21a1.58,1.58,0,0,1,2.22-.15l.79.7A1.57,1.57,0,0,1,980.61,348.32Zm0-37L966.5,327.46a1.79,1.79,0,0,1-2.41.14l-7.57-6.86a1.57,1.57,0,0,1-.11-2.22l.7-.79a1.58,1.58,0,0,1,2.22-.11l5.69,5.14,12.43-14.21a1.58,1.58,0,0,1,2.22-.15l.79.7A1.57,1.57,0,0,1,980.61,311.32Zm0-37L966.5,290.46a1.79,1.79,0,0,1-2.41.14l-7.57-6.86a1.57,1.57,0,0,1-.11-2.22l.7-.79a1.58,1.58,0,0,1,2.22-.11l5.69,5.14,12.43-14.21a1.58,1.58,0,0,1,2.22-.15l.79.7A1.57,1.57,0,0,1,980.61,274.32ZM979.29,260H956.71a2.7,2.7,0,0,1-2.57-3.53,14.63,14.63,0,0,1,11.49-9.77,9,9,0,1,1,4.46,0,14.63,14.63,0,0,1,11.77,9.81A2.69,2.69,0,0,1,979.29,260Zm28.18,219.47a1.45,1.45,0,0,1,0,2.06l-1.25,1.25a1.46,1.46,0,0,1-2.05,0l-6.45-6.45-6.17,6.17a1.46,1.46,0,0,1-2,0l-1-1a1.45,1.45,0,0,1,0-2.06l6.17-6.16-6.25-6.25a1.47,1.47,0,0,1,0-2.06l1.25-1.25a1.46,1.46,0,0,1,2,0L998,470l6.47-6.47a1.45,1.45,0,0,1,2.06,0l1,1a1.46,1.46,0,0,1,0,2.05L1001,473Zm0-51.92L1001,434l6.44,6.44a1.45,1.45,0,0,1,0,2.06l-1.25,1.25a1.46,1.46,0,0,1-2.05,0l-6.45-6.45-6.17,6.17a1.46,1.46,0,0,1-2,0l-1-1a1.45,1.45,0,0,1,0-2.06l6.17-6.16-6.25-6.25a1.47,1.47,0,0,1,0-2.06l1.25-1.25a1.46,1.46,0,0,1,2,0L998,431l6.47-6.47a1.45,1.45,0,0,1,2.06,0l1,1A1.46,1.46,0,0,1,1007.5,427.55Zm0-38L1001,396l6.44,6.44a1.45,1.45,0,0,1,0,2.06l-1.25,1.25a1.46,1.46,0,0,1-2.05,0l-6.45-6.45-6.17,6.17a1.46,1.46,0,0,1-2,0l-1-1a1.45,1.45,0,0,1,0-2.06l6.17-6.16-6.25-6.25a1.47,1.47,0,0,1,0-2.06l1.25-1.25a1.46,1.46,0,0,1,2,0L998,393l6.47-6.47a1.45,1.45,0,0,1,2.06,0l1,1A1.46,1.46,0,0,1,1007.5,389.55Zm0-41L1001,355l6.44,6.44a1.45,1.45,0,0,1,0,2.06l-1.25,1.25a1.46,1.46,0,0,1-2.05,0l-6.45-6.45-6.17,6.17a1.46,1.46,0,0,1-2,0l-1-1a1.45,1.45,0,0,1,0-2.06l6.17-6.16-6.25-6.25a1.47,1.47,0,0,1,0-2.06l1.25-1.25a1.46,1.46,0,0,1,2,0L998,352l6.47-6.47a1.45,1.45,0,0,1,2.06,0l1,1A1.46,1.46,0,0,1,1007.5,348.55Zm0-37L1001,318l6.44,6.44a1.45,1.45,0,0,1,0,2.06l-1.25,1.25a1.46,1.46,0,0,1-2.05,0l-6.45-6.45-6.17,6.17a1.46,1.46,0,0,1-2,0l-1-1a1.45,1.45,0,0,1,0-2.06l6.17-6.16-6.25-6.25a1.47,1.47,0,0,1,0-2.06l1.25-1.25a1.46,1.46,0,0,1,2,0L998,315l6.47-6.47a1.45,1.45,0,0,1,2.06,0l1,1A1.46,1.46,0,0,1,1007.5,311.55Zm0-37L1001,281l6.44,6.44a1.45,1.45,0,0,1,0,2.06l-1.25,1.25a1.46,1.46,0,0,1-2.05,0l-6.45-6.45-6.17,6.17a1.46,1.46,0,0,1-2,0l-1-1a1.45,1.45,0,0,1,0-2.06l6.17-6.16-6.25-6.25a1.47,1.47,0,0,1,0-2.06l1.25-1.25a1.46,1.46,0,0,1,2,0L998,278l6.47-6.47a1.45,1.45,0,0,1,2.06,0l1,1A1.46,1.46,0,0,1,1007.5,274.55Zm216.18,202.13a4.47,4.47,0,0,1-3.18,1.32h-196a4.5,4.5,0,0,1,0-9h196a4.5,4.5,0,0,1,3.18,7.68Zm0-39a4.47,4.47,0,0,1-3.18,1.32h-196a4.5,4.5,0,0,1,0-9h196a4.5,4.5,0,0,1,3.18,7.68Zm0-39a4.47,4.47,0,0,1-3.18,1.32h-196a4.5,4.5,0,0,1,0-9h196a4.5,4.5,0,0,1,3.18,7.68Zm0-40a4.47,4.47,0,0,1-3.18,1.32h-196a4.5,4.5,0,0,1,0-9h196a4.5,4.5,0,0,1,3.18,7.68Zm0-37a4.47,4.47,0,0,1-3.18,1.32h-196a4.5,4.5,0,0,1,0-9h196a4.5,4.5,0,0,1,3.18,7.68Zm0-37a4.47,4.47,0,0,1-3.18,1.32h-196a4.5,4.5,0,0,1,0-9h196a4.5,4.5,0,0,1,3.18,7.68Z" transform="translate(-937 -73.69)"/><path class="a" d="M1264.35,193.45l7,7a5.41,5.41,0,0,0,8.07-.44A77.68,77.68,0,0,0,1295,164.22a5.41,5.41,0,0,0-5.37-6.22h-10.26a5.41,5.41,0,0,1-5.42-5.49c0-.34,0-.67,0-1,0-.64,0-1.27,0-1.9a5.37,5.37,0,0,1,5.34-5.6h10a5.44,5.44,0,0,0,5.31-6.49A77.69,77.69,0,0,0,1279.36,104a5.41,5.41,0,0,0-8.06-.43l-6.45,6.45a5.43,5.43,0,0,1-7.75-.09c-.65-.67-1.32-1.32-2-1.95a5.45,5.45,0,0,1-.18-7.83l5.67-5.67a5.41,5.41,0,0,0-.84-8.36,81.64,81.64,0,0,0-33.67-12.41,5.4,5.4,0,0,0-6.08,5.38v7.52a5.39,5.39,0,0,1-5.44,5.36h-.06c-1,0-1.9,0-2.85.07a5.41,5.41,0,0,1-5.65-5.41V79.77a5.42,5.42,0,0,0-6.4-5.34,81.6,81.6,0,0,0-31.9,13.43,5.42,5.42,0,0,0-.69,8.25l5.54,5.54a5.43,5.43,0,0,1,0,7.7c-.66.66-1.31,1.33-1.94,2a5.43,5.43,0,0,1-7.87.23l-5.72-5.72a5.42,5.42,0,0,0-8.21.62,77.5,77.5,0,0,0-13.43,31.11,5.42,5.42,0,0,0,5.34,6.39h9a5.37,5.37,0,0,1,5.34,5.6c0,.63,0,1.26,0,1.9,0,.34,0,.67,0,1a5.41,5.41,0,0,1-5.42,5.49h-9.27a5.4,5.4,0,0,0-5.36,6.2,77.45,77.45,0,0,0,13.8,33.28,5.42,5.42,0,0,0,8.22.64l6.2-6.2a5.45,5.45,0,0,1,7.83.18c.63.68,1.28,1.35,2,2a5.43,5.43,0,0,1,.09,7.75l-6,6a5.42,5.42,0,0,0,.69,8.25,81.6,81.6,0,0,0,31.9,13.43,5.42,5.42,0,0,0,6.4-5.34v-7.89a5.41,5.41,0,0,1,5.65-5.41c.95,0,1.89.07,2.85.07h.06a5.39,5.39,0,0,1,5.44,5.36v8.52a5.4,5.4,0,0,0,6.08,5.38,81.64,81.64,0,0,0,33.67-12.41,5.41,5.41,0,0,0,.84-8.36l-6.19-6.19a5.43,5.43,0,0,1,.23-7.87c.69-.63,1.36-1.28,2-1.94A5.43,5.43,0,0,1,1264.35,193.45Zm-44.35-.81a42.05,42.05,0,0,1-14-.51,41.51,41.51,0,0,1,0-81.26,42.05,42.05,0,0,1,14-.51,41.51,41.51,0,0,1,27.53,66.27,42,42,0,0,1-10.24,9.56A41.33,41.33,0,0,1,1220,192.64Z" transform="translate(-937 -73.69)"/><path class="a" d="M1130.64,173.12l1.92,2.77a1.86,1.86,0,0,0,2.76.34,26.65,26.65,0,0,0,7.48-11.12,1.86,1.86,0,0,0-1.44-2.43l-3.47-.63a1.86,1.86,0,0,1-1.5-2.19,3.4,3.4,0,0,0,.07-.34c0-.21.07-.42.1-.64a1.86,1.86,0,0,1,2.15-1.57l3.39.61a1.86,1.86,0,0,0,2.19-1.87,26.62,26.62,0,0,0-3.13-12.25,1.84,1.84,0,0,0-2.69-.63l-2.58,1.78a1.85,1.85,0,0,1-2.61-.5c-.18-.26-.37-.53-.56-.78a1.88,1.88,0,0,1,.42-2.66l2.26-1.57a1.86,1.86,0,0,0,.22-2.88,28.05,28.05,0,0,0-10.62-6.25,1.86,1.86,0,0,0-2.39,1.45l-.45,2.54a1.85,1.85,0,0,1-2.17,1.48h0c-.32-.06-.65-.11-1-.15a1.85,1.85,0,0,1-1.58-2.17l.42-2.33a1.86,1.86,0,0,0-1.84-2.2,28,28,0,0,0-11.6,2.6,1.86,1.86,0,0,0-.74,2.75l1.54,2.21a1.86,1.86,0,0,1-.49,2.6l-.77.56a1.87,1.87,0,0,1-2.68-.4l-1.58-2.28a1.87,1.87,0,0,0-2.82-.29,26.58,26.58,0,0,0-6.43,9.69,1.86,1.86,0,0,0,1.41,2.49l3.05.55a1.85,1.85,0,0,1,1.46,2.22c0,.21-.09.43-.12.64l-.06.34a1.87,1.87,0,0,1-2.17,1.53l-3.13-.57a1.85,1.85,0,0,0-2.19,1.77,26.65,26.65,0,0,0,2.63,12.1,1.87,1.87,0,0,0,2.74.71l2.48-1.72a1.87,1.87,0,0,1,2.63.54l.54.8a1.86,1.86,0,0,1-.44,2.62l-2.41,1.68a1.86,1.86,0,0,0-.27,2.83,27.85,27.85,0,0,0,10,6.48A1.85,1.85,0,0,0,1109,180l.49-2.67a1.85,1.85,0,0,1,2.24-1.48c.31.07.63.14,1,.19h0a1.85,1.85,0,0,1,1.52,2.14l-.52,2.88a1.86,1.86,0,0,0,1.73,2.19,27.92,27.92,0,0,0,12.13-2.14,1.87,1.87,0,0,0,.8-2.78l-1.72-2.47a1.86,1.86,0,0,1,.56-2.64c.27-.18.54-.35.8-.54A1.87,1.87,0,0,1,1130.64,173.12Zm-15-3a15.23,15.23,0,0,1-1.88-.21,14.54,14.54,0,0,1-2.82-.81,14.22,14.22,0,0,1-5-3.41,14.29,14.29,0,0,1-3.69-12.34,14.63,14.63,0,0,1,.69-2.5,14.32,14.32,0,0,1,6.86-7.67,14.2,14.2,0,0,1,6.09-1.56,14.49,14.49,0,0,1,2.92.23,13.73,13.73,0,0,1,1.84.45,14.24,14.24,0,0,1,9.66,16.11,12.94,12.94,0,0,1-.57,2.16,14.09,14.09,0,0,1-3.82,5.82,14.38,14.38,0,0,1-4,2.6A14.1,14.1,0,0,1,1115.69,170.14Z" transform="translate(-937 -73.69)"/></svg>