<svg xmlns="http://www.w3.org/2000/svg" viewBox="0 0 378 426.88"><defs><style>.a{fill:#2f3152;}.b{fill:none;stroke:#fff;stroke-miterlimit:10;stroke-width:3px;}</style></defs><title>Icono1PaÌginaWeb</title><path class="a" d="M424.77,487.62a12.23,12.23,0,0,1-2,3.49,6.5,6.5,0,0,0,2.62-2.87A4,4,0,0,0,424.77,487.62ZM79.93,489.17a5.1,5.1,0,0,0-.51,1.05,6,6,0,0,0,1.59.6A11.15,11.15,0,0,1,79.93,489.17Z" transform="translate(-62.5 -77.12)"/><line class="b" x1="378" y1="184.38" x2="369.5" y2="184.38"/><line class="b" x1="9.5" y1="184.38" y2="184.38"/><path class="a" d="M360,336H143c-6.6,0-12,4.78-12,10.63v48.74c0,5.85,5.4,10.63,12,10.63H360c6.6,0,12-4.78,12-10.63V346.63C372,340.78,366.6,336,360,336ZM224.67,356.37,223,362.48c-2.46,8.68-4.93,17.36-7.35,26.06-.26.92-.67,1.12-2.06.94a15.34,15.34,0,0,0-3.83,0c-1.43.16-1.92.11-2.19-.86-1.36-4.95-3.79-13.58-5.2-18.51a1.12,1.12,0,0,0-2.16,0c-1.83,6.29-3.61,12.43-5.4,18.61a1.14,1.14,0,0,1-1.09.81c-2,0-4,0-6,0-.32,0-.76-.61-.88-1-1.56-5.42-7.5-26.43-9.09-32.13a1.12,1.12,0,0,1,1.08-1.42h2.59c3.13,0,3.14,0,3.88,2.67,1.29,4.67,3.55,12.82,4.89,17.6a1.13,1.13,0,0,0,2.18,0c1.51-5.17,4.19-14.34,5.62-19.37.21-.75.56-.95,1.38-.93,1.44,0,2.89,0,4.38,0a1.28,1.28,0,0,1,1.24.94c1.49,5.33,4.06,14.33,5.53,19.33a1.13,1.13,0,0,0,2.17,0c1.57-5.51,4.37-15.33,5.51-19.4.16-.61.39-.9,1.18-.87,1.39,0,2.79,0,4.25,0A1.13,1.13,0,0,1,224.67,356.37Zm49.63,0c-3.06,10.83-6.08,21.55-9.13,32.32a1.14,1.14,0,0,1-1.09.82c-2.06,0-4.06,0-6.05,0-.3,0-.73-.54-.83-.9-1.35-4.74-3.79-13.39-5.21-18.4a1.14,1.14,0,0,0-2.2,0c-1.46,5-4,13.62-5.25,18.19-.26.9-.66,1.25-1.77,1.2-1.71-.09-3.43-.05-5.21,0a1.13,1.13,0,0,1-1.09-.83c-3.05-10.74-6.09-21.44-9.17-32.31a1.14,1.14,0,0,1,1.09-1.45c1.82,0,3.56,0,5.3.05.25,0,.6.58.7.93.85,3,3.82,13.47,5.46,19.11a1.13,1.13,0,0,0,2.17,0c1.72-5.9,4.64-16,5.51-19.12.21-.76.57-1,1.45-1,1.48,0,3,0,4.46,0a1.15,1.15,0,0,1,1.1.83c1.49,5.33,4.06,14.29,5.54,19.34a1.15,1.15,0,0,0,2.21,0c1.45-5.07,4-14.06,5.41-19.11.24-.88.66-1.11,1.62-1.07,1.26,0,2.52,0,3.87,0A1.15,1.15,0,0,1,274.3,356.38Zm49.65.08c-.59,2.1-1.15,4.1-1.72,6.1-2.47,8.67-5,17.34-7.39,26-.26.92-.67,1.12-2.07.94a15.58,15.58,0,0,0-3.86,0c-1.43.16-1.93.11-2.2-.86-1.37-5-3.81-13.56-5.23-18.49a1.13,1.13,0,0,0-2.17,0c-1.84,6.28-3.64,12.42-5.44,18.59a1.14,1.14,0,0,1-1.09.81c-2,0-4,0-6-.05-.32,0-.76-.61-.88-1-1.57-5.41-7.55-26.4-9.15-32.09a1.12,1.12,0,0,1,1.09-1.42h2.6c3.15,0,3.16,0,3.91,2.67,1.29,4.66,3.57,12.8,4.92,17.58a1.14,1.14,0,0,0,2.19,0c1.52-5.17,4.21-14.33,5.65-19.35.21-.75.57-.95,1.39-.93,1.45,0,2.91,0,4.41,0a1.3,1.3,0,0,1,1.25.94c1.49,5.32,4.08,14.31,5.56,19.31a1.14,1.14,0,0,0,2.18,0c1.58-5.51,4.4-15.31,5.55-19.38.16-.61.39-.9,1.18-.87,1.4,0,2.81,0,4.28,0A1.12,1.12,0,0,1,324,356.46Z" transform="translate(-62.5 -77.12)"/><path class="a" d="M361.12,229c-.39,1-.79,2-1.22,3H320.79c.35-1,.68-2,1-3Z" transform="translate(-62.5 -77.12)"/><path class="a" d="M309.75,229c-.37,1-.74,2-1.13,3H258.17v-3Z" transform="translate(-62.5 -77.12)"/><path class="a" d="M246.83,229v3h-48.7c-.38-1-.76-2-1.12-3Z" transform="translate(-62.5 -77.12)"/><path class="a" d="M185,232H144.09c-.42-1-.82-2-1.21-3H184C184.29,230,184.63,231,185,232Z" transform="translate(-62.5 -77.12)"/><path class="a" d="M181.35,216.18H139.76a111.68,111.68,0,0,1-3.43-27.52q0-4.57.37-9.09a118.17,118.17,0,0,1,5.16-24.11H181a135,135,0,0,0-3.19,29.27A140.09,140.09,0,0,0,181.35,216.18Z" transform="translate(-62.5 -77.12)"/><path class="a" d="M246.83,155.46v60.72H193.05a127.68,127.68,0,0,1-4-31.45,122.46,122.46,0,0,1,3.52-29.27Z" transform="translate(-62.5 -77.12)"/><path class="a" d="M317.66,184.73a127.67,127.67,0,0,1-3.94,31.45H258.17V155.46h56A122,122,0,0,1,317.66,184.73Z" transform="translate(-62.5 -77.12)"/><path class="a" d="M368.67,188.66a111.21,111.21,0,0,1-3.44,27.52H325.41A139.51,139.51,0,0,0,329,184.73a135,135,0,0,0-3.19-29.27h37.33a118.17,118.17,0,0,1,5.16,24.11Q368.68,184.09,368.67,188.66Z" transform="translate(-62.5 -77.12)"/><path class="a" d="M358.11,142.61H322.27q-2-6-4.58-11.75a144.65,144.65,0,0,0-24.78-37.62A166.41,166.41,0,0,0,277.18,78a120.61,120.61,0,0,1,46.4,21.43A118.25,118.25,0,0,1,358.11,142.61Z" transform="translate(-62.5 -77.12)"/><path class="a" d="M310.2,142.61h-52V77.12a152.06,152.06,0,0,1,26.6,23.67,134.39,134.39,0,0,1,22.65,34.9C308.42,138,309.34,140.28,310.2,142.61Z" transform="translate(-62.5 -77.12)"/><path class="a" d="M246.83,78.38v64.23H196.56q1.23-3.36,2.67-6.65a134.19,134.19,0,0,1,22.45-34.82A152.8,152.8,0,0,1,246.83,78.38Z" transform="translate(-62.5 -77.12)"/><path class="a" d="M230.18,78a162.81,162.81,0,0,0-16.32,15.62A143.34,143.34,0,0,0,189.07,131q-2.58,5.75-4.58,11.66h-37.6a117.49,117.49,0,0,1,34.83-43.08l.92-.69A121.47,121.47,0,0,1,230.18,78Z" transform="translate(-62.5 -77.12)"/><path class="a" d="M424,232H80a8,8,0,0,0-8,8V496a8,8,0,0,0,8,8H424a8,8,0,0,0,8-8V240A8,8,0,0,0,424,232ZM112.53,248.18a4,4,0,0,1,5.65-5.65,1.33,1.33,0,0,1,.29.29,4,4,0,0,1-5.65,5.65A1.33,1.33,0,0,1,112.53,248.18Zm-13,0a4,4,0,0,1,5.65-5.65,1.33,1.33,0,0,1,.29.29,4,4,0,0,1-5.65,5.65A1.33,1.33,0,0,1,99.53,248.18Zm-13,0a4,4,0,0,1,5.65-5.65,1.33,1.33,0,0,1,.29.29,4,4,0,0,1-5.65,5.65A1.33,1.33,0,0,1,86.53,248.18ZM90.5,486a1.5,1.5,0,0,1-1.5-1.5h0V262.44a.92.92,0,0,1,.88-.92l321.24,0a1.88,1.88,0,0,1,1.88,1.88v.12s0,201.62,0,221a1.5,1.5,0,0,1-1.5,1.49Z" transform="translate(-62.5 -77.12)"/><path class="a" d="M81,490.82a6,6,0,0,1-1.59-.6,5.1,5.1,0,0,1,.51-1.05A11.15,11.15,0,0,0,81,490.82Z" transform="translate(-62.5 -77.12)"/><path class="a" d="M425.39,488.24a6.5,6.5,0,0,1-2.62,2.87,12.23,12.23,0,0,0,2-3.49A4,4,0,0,1,425.39,488.24Z" transform="translate(-62.5 -77.12)"/><path class="a" d="M425.39,488.24a6.5,6.5,0,0,1-2.62,2.87,12.23,12.23,0,0,0,2-3.49A4,4,0,0,1,425.39,488.24Z" transform="translate(-62.5 -77.12)"/></svg>