<svg xmlns="http://www.w3.org/2000/svg" viewBox="0 0 354.29 425.85"><defs><style>.a{fill:#2f3152;}</style></defs><title>Icono2TiendaOnline</title><path class="a" d="M853,211.18H810.7a9.82,9.82,0,0,0-7.36,2l-24.78,19.58a15.48,15.48,0,0,0-4.9-.79H524.23a15.64,15.64,0,0,0-15.31,18.83l29.49,141.71A15.64,15.64,0,0,0,553.72,405H743.35a17.15,17.15,0,0,0,1.9-.11L752.17,421H540.09a9.09,9.09,0,0,0-9.09,9.09v5.82a9.09,9.09,0,0,0,9.09,9.09H766.91a9.09,9.09,0,0,0,9.09-9.09v-6a8.85,8.85,0,0,0-.47-2.74l-.6-1.39,0-.07-15.58-36.25q14.8-69.3,29.63-138.6c.1-.46.17-.91.23-1.36l23.59-18.63H853a9.87,9.87,0,1,0,0-19.74ZM749,342.8q-4,17.1-8.08,34.19a10.41,10.41,0,0,1-10.12,8H563.38a10.42,10.42,0,0,1-10.17-8.19q-3.72-17.08-7.46-34.19A10.41,10.41,0,0,1,555.92,330H738.85A10.4,10.4,0,0,1,749,342.8ZM768.69,262q-3.84,15.11-7.69,30.2A10.41,10.41,0,0,1,750.92,300H545.24a10.41,10.41,0,0,1-10.13-8l-7.1-30.2A10.39,10.39,0,0,1,538.13,249H758.62A10.4,10.4,0,0,1,768.69,262Z" transform="translate(-508.59 -78.03)"/><path class="a" d="M592,470a16,16,0,1,1-16-16,16.15,16.15,0,0,1,16,16c.31,11.56,18.31,11.61,18,0a34.66,34.66,0,0,0-22.48-32c-12.92-4.9-28.4-.69-37.28,9.82a33.95,33.95,0,0,0,32.21,55.49c16.09-2.83,27.12-17.44,27.55-33.35C610.31,458.41,592.31,458.42,592,470Z" transform="translate(-508.59 -78.03)"/><path class="a" d="M737,470a16,16,0,1,1-16-16,16.15,16.15,0,0,1,16,16c.31,11.56,18.31,11.61,18,0a34.66,34.66,0,0,0-22.48-32c-12.92-4.9-28.4-.69-37.28,9.82a33.95,33.95,0,0,0,32.21,55.49c16.09-2.83,27.12-17.44,27.55-33.35C755.31,458.41,737.31,458.42,737,470Z" transform="translate(-508.59 -78.03)"/><path class="a" d="M757.22,232a12,12,0,0,1-8,8.52L722.06,249H555.33L550,232l-26.89-86A12,12,0,0,1,531,131l71.22-22.27,23.21,71.9a12,12,0,0,0,22.84-7.37l-23.14-71.69,16-5,20.35,63.05a12,12,0,0,0,15.1,7.73l21.89-7.06a12,12,0,0,0,7.73-15.11L685.93,82.53l12.62-4a12,12,0,0,1,15,7.87l43.47,139A11.84,11.84,0,0,1,757.22,232Z" transform="translate(-508.59 -78.03)"/></svg>